OpenSim_Sub04_CSStiffKnee_GRF.mot
version=1
nRows=23
nColumns=19
inDegrees=no
endheader
time	lFx	lFy	lFz	lCOPx	lCOPy	lCOPz	rFx	rFy	rFz	rCOPx	rCOPy	rCOPz	lMx	lMy	lMz	rMx	rMy	rMz
37.06000000	31.04115000	597.76603770	55.94056533	0.48836371	0	-0.63057086	-0.32169306	0.44729059	-0.19149721	-0.00001519	0	0.00000986	0	2.55908682	0	0	0.00000513	0.00000000
37.07000000	32.71869619	595.76391985	54.54717925	0.48246011	0	-0.63051002	-0.29674891	0.47563657	-0.15555376	-0.00002260	0	0.00001090	0	2.75200561	0	0	-0.00000235	0.00000000
37.08000000	34.94788270	595.95705374	53.13622780	0.47673137	0	-0.63044235	-0.27716206	0.49557277	-0.12943641	-0.00004039	0	0.00001846	0	2.98691799	0	0	-0.00000003	-0.00000000
37.09000000	37.44048776	598.09931790	51.90648869	0.47104063	0	-0.63035491	-0.27657049	0.42000408	-0.16218411	-0.00004628	0	0.00002165	0	3.17818187	0	0	0.00003299	-0.00000000
37.10000000	40.17333604	601.84469514	51.04738181	0.46513638	0	-0.63021929	-0.28270521	0.35953570	-0.20270328	0.00001236	0	-0.00000442	0	3.27706836	0	0	0.00011352	0.00000000
37.11000000	43.24676444	606.69989349	50.62089841	0.45879352	0	-0.63003301	-0.26408612	0.38604015	-0.18972953	0.00021617	0	-0.00009789	0	3.29622539	0	0	0.00022584	0.00000000
37.12000000	46.82257776	612.15397945	50.60797400	0.45211058	0	-0.62980756	-0.19327587	0.41699097	-0.17852580	0.00061645	0	-0.00028431	0	3.26988354	0	0	0.00026004	0.00000000
37.13000000	50.78264379	618.14437071	51.01819725	0.44533687	0	-0.62958488	-0.09364809	0.35525757	-0.16195783	0.00106689	0	-0.00049922	0	3.16160546	0	0	-0.00006213	-0.00000000
37.14000000	54.94458474	624.82609972	51.80111434	0.43865297	0	-0.62942351	-0.01909372	0.27558449	-0.09518363	0.00092619	0	-0.00044913	0	2.95698628	0	0	-0.00117702	-0.00000000
37.15000000	59.30470459	632.25318170	52.77085395	0.43225152	0	-0.62937414	-0.06844942	0.42650095	-0.06881019	-0.00121252	0	0.00051923	0	2.73801243	0	0	-0.00336515	-0.00000000
37.16000000	63.83176601	640.14911129	53.70519404	0.42602078	0	-0.62938215	-0.47726329	1.13152525	-0.11871939	-0.00722106	0	0.00329141	0	2.58212339	0	0	-0.00583049	0.00000000
37.17000000	68.27327680	647.95571288	54.45138829	0.42001385	0	-0.62937773	-1.55827290	2.49179262	-0.29414468	-0.01749055	0	0.00809917	0	2.49590477	0	0	-0.00507440	-0.00000000
37.18000000	72.25801628	654.99317607	54.94631552	0.41417974	0	-0.62930823	-3.51306965	4.16228981	-0.56028411	-0.02611983	0	0.01229365	0	2.47662049	0	0	0.00658671	0.00000000
37.19000000	75.62657777	660.44314906	55.15536346	0.40846219	0	-0.62919979	-6.78841774	6.03529449	-0.67097231	-0.01357489	0	0.00689349	0	2.52513858	0	0	0.03938938	0.00000000
37.20000000	78.36013468	663.33591976	55.01179746	0.40270762	0	-0.62910738	-12.30110016	9.15649750	-0.40506098	0.05751956	0	-0.02552981	0	2.62256977	0	0	0.09551070	-0.00000000
37.21000000	80.37277064	662.79836295	54.49084149	0.39695713	0	-0.62906967	-20.83515503	16.90819754	0.43836594	0.22741881	0	-0.10423151	0	2.71157759	0	0	0.14279430	0
37.22000000	81.55043083	658.01454481	53.51734785	0.39149871	0	-0.62907630	-31.74699548	35.84150180	2.25959456	0.47892047	0	-0.22260888	0	2.80982630	0	0	0.07393900	0.00000000
37.23000000	81.87966888	647.84843645	51.99663213	0.38637350	0	-0.62911161	-41.30332505	75.39455729	4.99682236	0.70464795	0	-0.32822645	0	2.90046813	0	0	-0.21394197	0
37.24000000	81.34098229	631.15446764	49.81758086	0.38142980	0	-0.62919057	-43.03085619	143.87374689	7.72019410	0.83453121	0	-0.38563910	0	3.00146966	0	0	-0.58862532	0.00000000
37.25000000	79.78197305	606.76771109	46.86650197	0.37645666	0	-0.62926573	-35.34959245	239.09131270	8.25916117	0.88050175	0	-0.40329845	0	3.09297466	0	0	-1.07042348	-0.00000000
37.26000000	76.82825196	573.96786034	43.07313617	0.37152942	0	-0.62922246	-31.01897644	342.66235442	3.20614269	0.88017600	0	-0.40202728	0	3.11842063	0	0	-1.39469424	-0.00000000
37.27000000	72.09823221	532.99823012	38.34653229	0.36674851	0	-0.62894264	-40.68726336	431.64721661	-7.23528117	0.86642346	0	-0.39592012	0	3.09554022	0	0	-1.51825744	0.00000000
37.28000000	65.55797691	485.23989952	32.78947016	0.36233253	0	-0.62833899	-62.10931979	495.37775281	-17.93257136	0.85702612	0	-0.39070932	0	3.01871194	0	0	-1.82777366	0.00000000
